<mxfile host="app.diagrams.net" modified="2024-01-20T12:00:00.000Z" agent="Mozilla/5.0" version="21.6.6" type="device">
<diagram name="Reverse Proxy Architecture" id="reverse-proxy-arch">
<mxGraphModel dx="1422" dy="762" grid="1" gridSize="10" guides="1" tooltips="1" connect="1" arrows="1" fold="1" page="1" pageScale="1" pageWidth="1100" pageHeight="850" background="#ffffff">
<root>
<mxCell id="0"/>
<mxCell id="1" parent="0"/>

<!-- External Clients -->
<mxCell id="2" value="External Clients" style="rounded=1;whiteSpace=wrap;html=1;fillColor=#dae8fc;strokeColor=#6c8ebf;" vertex="1" parent="1">
<mxGeometry x="50" y="200" width="120" height="60" as="geometry"/>
</mxCell>

<!-- HTTP Server -->
<mxCell id="3" value="HTTP Server&#10;(server.h/cpp)" style="rounded=1;whiteSpace=wrap;html=1;fillColor=#d5e8d4;strokeColor=#82b366;" vertex="1" parent="1">
<mxGeometry x="250" y="160" width="120" height="60" as="geometry"/>
</mxCell>

<!-- WebSocket Server -->
<mxCell id="4" value="WebSocket Server&#10;(Optional)" style="rounded=1;whiteSpace=wrap;html=1;fillColor=#d5e8d4;strokeColor=#82b366;dashed=1;" vertex="1" parent="1">
<mxGeometry x="250" y="240" width="120" height="60" as="geometry"/>
</mxCell>

<!-- Proxy Handler -->
<mxCell id="5" value="Proxy Handler&#10;(proxyHandler.h/cpp)" style="rounded=1;whiteSpace=wrap;html=1;fillColor=#ffe6cc;strokeColor=#d79b00;" vertex="1" parent="1">
<mxGeometry x="450" y="200" width="120" height="60" as="geometry"/>
</mxCell>

<!-- Configuration -->
<mxCell id="6" value="Configuration&#10;(Config.h/cpp)" style="rounded=1;whiteSpace=wrap;html=1;fillColor=#fff2cc;strokeColor=#d6b656;" vertex="1" parent="1">
<mxGeometry x="450" y="320" width="120" height="60" as="geometry"/>
</mxCell>

<!-- Load Balancer -->
<mxCell id="7" value="Load Balancer&#10;(loadBalancer.h/cpp)" style="rounded=1;whiteSpace=wrap;html=1;fillColor=#ffe6cc;strokeColor=#d79b00;" vertex="1" parent="1">
<mxGeometry x="650" y="160" width="120" height="60" as="geometry"/>
</mxCell>

<!-- Authentication -->
<mxCell id="8" value="Authentication&#10;(JWT)" style="rounded=1;whiteSpace=wrap;html=1;fillColor=#f8cecc;strokeColor=#b85450;" vertex="1" parent="1">
<mxGeometry x="650" y="240" width="120" height="60" as="geometry"/>
</mxCell>

<!-- Cache (Redis) -->
<mxCell id="9" value="Cache&#10;(Redis Client)" style="rounded=1;whiteSpace=wrap;html=1;fillColor=#e1d5e7;strokeColor=#9673a6;" vertex="1" parent="1">
<mxGeometry x="650" y="320" width="120" height="60" as="geometry"/>
</mxCell>

<!-- Backend Servers -->
<mxCell id="10" value="Backend Servers" style="rounded=1;whiteSpace=wrap;html=1;fillColor=#f5f5f5;strokeColor=#666666;" vertex="1" parent="1">
<mxGeometry x="850" y="200" width="120" height="60" as="geometry"/>
</mxCell>

<!-- Logger -->
<mxCell id="11" value="Logger&#10;(Logger.h/cpp)" style="rounded=1;whiteSpace=wrap;html=1;fillColor=#dae8fc;strokeColor=#6c8ebf;" vertex="1" parent="1">
<mxGeometry x="450" y="80" width="120" height="60" as="geometry"/>
</mxCell>

<!-- Error Handler -->
<mxCell id="12" value="Error Handler&#10;(ErrorHandler.h/cpp)" style="rounded=1;whiteSpace=wrap;html=1;fillColor=#f8cecc;strokeColor=#b85450;" vertex="1" parent="1">
<mxGeometry x="450" y="440" width="120" height="60" as="geometry"/>
</mxCell>

<!-- Connection Lines -->
<!-- Clients to Servers -->
<mxCell id="13" value="" style="endArrow=classic;html=1;exitX=1;exitY=0.5;entryX=0;entryY=0.5;" edge="1" parent="1" source="2" target="3">
<mxGeometry width="50" height="50" relative="1" as="geometry"/>
</mxCell>
<mxCell id="14" value="" style="endArrow=classic;html=1;exitX=1;exitY=0.5;entryX=0;entryY=0.5;" edge="1" parent="1" source="2" target="4">
<mxGeometry width="50" height="50" relative="1" as="geometry"/>
</mxCell>

<!-- Servers to Proxy Handler -->
<mxCell id="15" value="" style="endArrow=classic;html=1;exitX=1;exitY=0.5;entryX=0;entryY=0.5;" edge="1" parent="1" source="3" target="5">
<mxGeometry width="50" height="50" relative="1" as="geometry"/>
</mxCell>
<mxCell id="16" value="" style="endArrow=classic;html=1;exitX=1;exitY=0.5;entryX=0;entryY=0.5;" edge="1" parent="1" source="4" target="5">
<mxGeometry width="50" height="50" relative="1" as="geometry"/>
</mxCell>

<!-- Proxy Handler to Components -->
<mxCell id="17" value="" style="endArrow=classic;html=1;exitX=1;exitY=0.5;entryX=0;entryY=0.5;" edge="1" parent="1" source="5" target="7">
<mxGeometry width="50" height="50" relative="1" as="geometry"/>
</mxCell>
<mxCell id="18" value="" style="endArrow=classic;html=1;exitX=1;exitY=0.5;entryX=0;entryY=0.5;" edge="1" parent="1" source="5" target="8">
<mxGeometry width="50" height="50" relative="1" as="geometry"/>
</mxCell>
<mxCell id="19" value="" style="endArrow=classic;html=1;exitX=1;exitY=0.5;entryX=0;entryY=0.5;" edge="1" parent="1" source="5" target="9">
<mxGeometry width="50" height="50" relative="1" as="geometry"/>
</mxCell>

<!-- Load Balancer to Backend -->
<mxCell id="20" value="" style="endArrow=classic;html=1;exitX=1;exitY=0.5;entryX=0;entryY=0.5;" edge="1" parent="1" source="7" target="10">
<mxGeometry width="50" height="50" relative="1" as="geometry"/>
</mxCell>

<!-- Config Connections -->
<mxCell id="21" value="" style="endArrow=classic;html=1;exitX=0.5;exitY=0;entryX=0.5;entryY=1;" edge="1" parent="1" source="6" target="5">
<mxGeometry width="50" height="50" relative="1" as="geometry"/>
</mxCell>

<!-- Logger Connections -->
<mxCell id="22" value="" style="endArrow=classic;html=1;exitX=0.5;exitY=1;entryX=0.5;entryY=0;" edge="1" parent="1" source="11" target="5">
<mxGeometry width="50" height="50" relative="1" as="geometry"/>
</mxCell>

<!-- Error Handler Connections -->
<mxCell id="23" value="" style="endArrow=classic;html=1;exitX=0.5;exitY=0;entryX=0.5;entryY=1;" edge="1" parent="1" source="12" target="6">
<mxGeometry width="50" height="50" relative="1" as="geometry"/>
</mxCell>

</root>
</mxGraphModel>
</diagram>
</mxfile>
